<?xml version="1.0" encoding="UTF-8"?>
<svg id="Layer_1" data-name="Layer 1" xmlns="http://www.w3.org/2000/svg" viewBox="0 0 423.75 630.42">
  <defs>
    <style>
      .cls-1 {
        fill: #4285F4;
      }
    </style>
  </defs>
  <path class="cls-1" d="M396.07,197.87l-5.48,26.28-2.66,12.76c-.9,4.32-5.12,7.1-9.45,6.22l-9.79-2c-.91-.16-1.83-.32-2.75-.47-1.64-.28-3.3-.55-4.97-.81-.9-.14-1.8-.28-2.71-.41-.69-.1-1.38-.2-2.08-.3-.92-.13-1.84-.26-2.76-.38-.61-.09-1.23-.17-1.85-.25-1.32-.18-2.66-.35-4-.51-1.27-.16-2.55-.31-3.84-.45-1.41-.16-2.82-.31-4.25-.46-3.21-.34-6.47-.64-9.76-.91-.73-.06-1.46-.12-2.2-.17-1.48-.12-2.98-.23-4.48-.33-.83-.06-1.67-.11-2.5-.17-.84-.05-1.68-.1-2.52-.15-.62-.04-1.24-.08-1.86-.11-1.58-.09-3.17-.17-4.77-.24-1.08-.05-2.16-.1-3.24-.14-.73-.03-1.46-.06-2.19-.09-1.44-.05-2.89-.1-4.35-.14h-.03c-1.36-.05-2.72-.08-4.09-.11h-.02c-2.73-.06-5.47-.1-8.24-.12-1.44,0-2.88-.01-4.32-.01-2.89,0-5.79.02-8.72.07-.65.01-1.3.02-1.95.03-.21,0-.41,0-.62.01-.35,0-.71,0-1.06.02-1.45.03-2.92.06-4.38.1-.13,0-.27,0-.4,0-1.77.06-3.54.11-5.32.18-1.67.06-3.34.12-5.03.2-.85.04-1.7.08-2.55.12-.66.03-1.32.06-1.98.1-.98.05-1.97.1-2.95.16-1.59.09-3.19.18-4.78.28-.25.02-.5.03-.76.05-1.74.11-3.49.23-5.23.36-1.81.13-3.63.26-5.45.41-.34.03-.68.06-1.02.09-.24.02-.49.04-.73.06-1.55.12-3.11.25-4.67.4-1.66.15-3.34.3-5.01.47-.14.01-.27.03-.41.04-.66.06-1.31.12-1.97.2-1.56.15-3.13.31-4.7.48-1.86.2-3.73.4-5.6.62-.37.04-.74.09-1.11.13-1.77.2-3.54.42-5.32.64-2.02.25-4.06.51-6.1.79-2.04.27-4.08.55-6.13.84-1.88.27-3.75.54-5.62.83-.79.11-1.58.23-2.37.36-2.01.3-4.02.62-6.01.95-.02,0-.04,0-.05.01-2.27.36-4.53.74-6.78,1.13-.08.01-.15.02-.22.04-1.14.19-2.27.39-3.4.59-1.12.2-2.25.4-3.37.61-1.12.2-2.23.41-3.34.62-1.16.21-2.32.44-3.47.66-.95.18-1.89.36-2.83.55-1.31.26-2.62.52-3.92.79-.04,0-.08.01-.11.02-1.72.34-3.43.7-5.12,1.06-.49.1-.97.21-1.45.31-.14.03-.29.06-.43.09-1.3.28-2.6.56-3.89.85-.58.13-1.16.26-1.74.39-.19.04-.37.08-.56.12h-.01c-1.54.35-3.07.7-4.6,1.06-.25.05-.49.11-.74.17-1.36.32-2.71.63-4.05.96-.74.17-1.49.35-2.23.54-.46.11-.91.22-1.36.33-1.98.49-3.96.98-5.92,1.49-1.06.26-2.11.54-3.16.82-.57.14-1.14.29-1.7.45-.3.07-.61.16-.91.24-.77.2-1.54.41-2.31.62-1.46.39-2.91.79-4.36,1.19-.04.01-.08.02-.12.03-1.74.49-3.48.98-5.2,1.48-.62.71-1.25,1.42-1.86,2.14-.62.72-1.24,1.44-1.85,2.16-1.08,1.26-2.14,2.54-3.2,3.83-.52.63-1.04,1.26-1.54,1.89-1.76,2.15-3.48,4.34-5.19,6.55-.89,1.16-1.78,2.33-2.66,3.5-.29.4-.59.8-.89,1.2-1,1.34-1.99,2.7-2.96,4.06-1.01,1.4-2.01,2.81-3,4.23-.05.09-.11.17-.17.25-1.04,1.5-2.06,3-3.07,4.52-.01.01-.02.03-.03.04-.56.84-1.12,1.68-1.67,2.52-4.74,7.22-9.23,14.69-13.39,22.35-10.13,18.62-18.38,38.44-23.9,58.89-1.74,6.45-3.21,12.97-4.38,19.54-.34,1.9-.65,3.81-.94,5.72-.85,5.69-1.36,11.37-1.52,17.03-.27,8.88.29,17.71,1.6,26.42,12.64,84.25,95.5,157.41,185.13,157.41,104.81,0,198.82-96.54,183.09-201.44-.26-1.75-.55-3.49-.86-5.23-1.37-7.87-3.18-15.67-5.38-23.37-1.93-6.79-4.17-13.5-6.67-20.11-2.19-5.81-4.59-11.54-7.18-17.19-6.35-13.89-13.8-27.24-22.04-39.86-5.32-8.16-10.96-16.02-16.84-23.51-3.23-4.12-6.54-8.13-9.89-12.02,3.76.3,7.47.64,11.13,1.02,4.1.42,8.13.89,12.09,1.42,1.47.19,2.93.39,4.38.59,4.57.65,8.65,3.19,11.3,6.97l.04.06c11.96,17.09,22.72,35.53,31.59,54.88,2.52,5.48,4.88,11.04,7.08,16.66,2.49,6.39,4.77,12.86,6.81,19.4,2.31,7.4,4.31,14.9,5.97,22.46,1.2,5.46,2.22,10.96,3.05,16.48,17.83,118.9-88.73,228.34-207.54,228.34-105.65,0-203-89.68-211.17-189.91-.71-8.63-.76-17.35-.08-26.09.29-3.89.73-7.79,1.32-11.68.53-3.55,1.14-7.08,1.84-10.61,1.24-6.41,2.75-12.78,4.48-19.1,6.06-22.13,14.95-43.58,25.81-63.82,2-3.76,4.08-7.48,6.23-11.16,4.54-7.79,9.37-15.37,14.42-22.71.19-.28.38-.55.56-.82-.11.04-.22.08-.32.12-.18.05-.35.12-.52.19-.36.13-.71.27-1.06.41-3,1.14-5.95,2.31-8.86,3.49-.92.38-1.84.75-2.76,1.13-2.24.93-4.46,1.87-6.65,2.82-.89.38-1.77.77-2.65,1.16-1.33.59-2.64,1.17-3.95,1.77-.64.29-1.29.59-1.93.88-1.38.65-2.86,1.09-4.36,1.34h-.03c-.93.16-1.86.27-2.79.34-2.39.19-4.79-.01-7.11-.59-5.38-1.33-10.4-3.92-14.67-8.17,62.34-30.62,127.26-49.11,194.24-58.63,57.53-8.18,104.96-8.01,174.9.57.86.11,1.67-.46,1.85-1.31l5.51-25.04c.2-.92-.39-1.83-1.31-2.02-5.81-1.14-11.81-2.16-17.98-3.05-23.17-3.38-48.86-5.07-76.26-4.87-21.33.14-43.69,1.42-66.72,3.92h-.01c-4.8.52-9.63,1.1-14.49,1.74-.01-.01-.02,0-.04,0-2.9.36-5.81.76-8.74,1.18-25.19,3.58-49.39,8.37-72.17,14.16-28.47,7.22-54.74,15.99-77.96,25.83-2.27.96-4.51,1.93-6.72,2.91-7.39,3.28-15.89-1.26-17.33-9.21l-.5-2.79C6.61,149.45,39.74,83.31,95.97,46.04c6.58-4.36,15.2-4.08,21.58.56l7.82,5.69c-57.76,28.65-94.29,89.19-87.96,157.85.13,1.31,1.49,2.12,2.71,1.6,34.19-14.56,75.02-26.78,119.83-35.18,10.14-1.91,20.49-3.61,31.01-5.11,18.58-2.64,36.82-4.49,54.54-5.6h.01c40.14-2.51,77.58-1.21,110.14,3.41,8.66,1.22,16.97,2.67,24.9,4.37,3.81.81,7.53,1.67,11.16,2.58,4.72,1.18,7.65,5.9,6.66,10.66l-2.29,11Z"/>
  <path class="cls-1" d="M375.75,146.32l-18.28-2.94c-4.56-.74-8.37-3.9-9.89-8.25-9.07-25.88-24.05-47.53-43.23-64.03-3.57-3.07-6.21-7.1-7.53-11.63-2.69-9.27-5.78-17.99-9.25-25.97,42.95,21.76,75.31,60.97,88.18,112.81Z"/>
  <path class="cls-1" d="M57.67,274.5c.46-.17.92-.34,1.38-.51-.46.18-.92.35-1.38.52h0Z"/>
  <path class="cls-1" d="M277.29,135.86c-3.85-34.33-23.36-90-37.71-108.75-.79-1.03-1.91-1.74-3.17-2.04-12.4-2.87-28.9-5.07-42.63-4.29-13.13.76-22.26,1.57-34.58,6.96-.87.38-.95,1.58-.13,2.06,24.05,14.21,48.86,66.6,49.29,119.51l-6.25.2c-6.39.2-11.85-4.56-12.52-10.92-5.02-47.84-27.27-87.16-56.99-103.35-7.35-4.01-7.32-14.3.06-18.26,14.04-7.54,30.05-12.93,47.38-15.44,24.58-3.57,48.36-.87,68.96,6.69,2.88,1.05,5.41,2.87,7.28,5.24,21.87,27.75,35.64,79.63,37.56,133.19h-4.41c-6.21.01-11.45-4.64-12.14-10.82Z"/>
  <path class="cls-1" d="M315.38,405.18c4.68,3.73,5.22,10.73,1.05,15.03-20.84,21.49-50.05,34.85-82.36,34.85-34.78,0-65.94-15.47-86.98-39.91-3.96-4.6-3.14-11.6,1.83-15.09h0c4.32-3.04,10.22-2.25,13.67,1.76,17.29,20.1,42.9,32.82,71.49,32.82,26.52,0,50.47-10.94,67.59-28.56,3.67-3.78,9.59-4.17,13.71-.89h0Z"/>
  <ellipse class="cls-1" cx="165.14" cy="332.95" rx="20.56" ry="29.72"/>
  <ellipse class="cls-1" cx="293.83" cy="332.95" rx="20.56" ry="29.72"/>
</svg>